PathFileType	4	(X/Y/Z)	/Users/itak/Documents/Research/Walk-IL/dataset/trc/00265_00009.trc
DataRate	CameraRate	NumFrames	NumMarkers	Units	OrigDataRate	OrigDataStartFrame	OrigNumFrames
100.000000	100.000000	4	54	mm	100.000000	374	428
Frame#	Time	RPSI			LPSI			L3			STRN			T10			C7			CLAV			RBAK			LBAK			LSHO			LUPA			LAEL			LAOL			LWTS			LWPS			LFRA			LIFD			LHPS			LHTS			RSHO			RUPA			RAEL			RAOL			RWTS			RWPS			RFRA			RIFD			RHTS			RHPS			RBHD			LFHD			RFHD			LBHD			LHIP			RHIP			RASI			LASI			LKNE			LTHI			LANK			LTIP			LTOE			LMT1			LMT5			LHEE			RKNE			RTHI			RANK			RTIP			RTOE			RMT1			RMT5			RHEE			*53			
		X1	Y1	Z1	X2	Y2	Z2	X3	Y3	Z3	X4	Y4	Z4	X5	Y5	Z5	X6	Y6	Z6	X7	Y7	Z7	X8	Y8	Z8	X9	Y9	Z9	X10	Y10	Z10	X11	Y11	Z11	X12	Y12	Z12	X13	Y13	Z13	X14	Y14	Z14	X15	Y15	Z15	X16	Y16	Z16	X17	Y17	Z17	X18	Y18	Z18	X19	Y19	Z19	X20	Y20	Z20	X21	Y21	Z21	X22	Y22	Z22	X23	Y23	Z23	X24	Y24	Z24	X25	Y25	Z25	X26	Y26	Z26	X27	Y27	Z27	X28	Y28	Z28	X29	Y29	Z29	X30	Y30	Z30	X31	Y31	Z31	X32	Y32	Z32	X33	Y33	Z33	X34	Y34	Z34	X35	Y35	Z35	X36	Y36	Z36	X37	Y37	Z37	X38	Y38	Z38	X39	Y39	Z39	X40	Y40	Z40	X41	Y41	Z41	X42	Y42	Z42	X43	Y43	Z43	X44	Y44	Z44	X45	Y45	Z45	X46	Y46	Z46	X47	Y47	Z47	X48	Y48	Z48	X49	Y49	Z49	X50	Y50	Z50	X51	Y51	Z51	X52	Y52	Z52	X53	Y53	Z53	X54	Y54	Z54	

375	3.74	-150.3890228271484	1033.218383789062	-496.5176086425781	-270.3050231933594	1041.97021484375	-502.6783752441406	-228.6169281005859	1122.40966796875	-491.60302734375	-216.3814697265625	1311.316650390625	-736.9844360351562	-228.7656402587891	1248.7646484375	-486.2702331542969	-233.7970886230469	1511.141357421875	-545.9994506835938	-217.286865234375	1428.484985351562	-710.6400146484375	-165.0249176025391	1371.458129882812	-465.4842529296875	-344.9240112304688	1471.996215820312	-536.600830078125	-391.5477600097656	1474.887451171875	-630.2156982421875	-472.9449462890625	1357.58154296875	-616.6417236328125	-501.7504577636719	1150.244995117188	-654.5569458007812	-467.6357116699219	1124.210327148438	-578.7833862304688	-415.7392883300781	945.7528686523438	-779.4537353515625	-497.9892883300781	919.864013671875	-774.0338134765625	-507.2698059082031	1049.74462890625	-698.7061767578125	-404.4704284667969	757.189208984375	-834.1394653320312	-481.1834716796875	837.4249267578125	-809.5084228515625	-420.2648620605469	855.3529052734375	-836.6988525390625	-59.65670013427734	1474.239013671875	-589.6931762695312	4.656310558319092	1408.77783203125	-566.9248046875	49.18472671508789	1128.485229492188	-556.129150390625	-41.68619155883789	1119.598022460938	-529.3450927734375	15.04710006713867	917.4049682617188	-700.835693359375	79.01771545410156	903.3084106445312	-647.9024047851562	64.02163696289062	1061.430786132812	-584.7340698242188	13.81195068359375	724.1869506835938	-725.0689086914062	30.10268402099609	798.7722778320312	-744.9946899414062	82.86322784423828	797.9248046875	-694.0108032226562	-189.1998291015625	1662.786499023438	-574.3793334960938	-254.3474578857422	1724.776245117188	-782.9976806640625	-155.1401214599609	1723.88671875	-767.9741821289062	-314.3814697265625	1673.956420898438	-638.2083740234375	-409.3868408203125	986.90869140625	-612.9415893554688	-40.64563369750977	998.1055908203125	-592.7684936523438	-73.94005584716797	1043.486206054688	-689.8029174804688	-355.1171264648438	1032.452880859375	-707.7984008789062	-347.6837768554688	507.0423278808594	-685.7192993164062	-379.4280395507812	649.0991821289062	-671.0553588867188	-312.4879760742188	33.83784103393555	-599.5151977539062	-337.8920593261719	278.1104431152344	-639.40283203125	-272.5350646972656	42.41366195678711	-819.1831665039062	-224.0515747070312	36.12228012084961	-753.0257568359375	-337.5630187988281	37.47294998168945	-726.0623168945312	-256.762451171875	37.7955436706543	-542.3687133789062	-63.03605270385742	519.3434448242188	-720.537841796875	-28.02670097351074	782.1651611328125	-680.5614624023438	-78.67037963867188	32.51187515258789	-630.5648193359375	-74.87571716308594	397.66748046875	-729.1834106445312	-113.9960021972656	45.41641235351562	-843.050048828125	-159.6438140869141	41.61144256591797	-788.966064453125	-50.27676773071289	32.91648483276367	-739.0348510742188	-139.7655487060547	35.46613693237305	-570.9730224609375	nan	nan	nan	
376	3.75	-149.1413116455078	1033.150268554688	-498.5574951171875	-269.1618957519531	1041.883544921875	-504.4524230957031	-227.2562866210938	1122.163696289062	-493.3342590332031	-215.8536682128906	1311.446899414062	-738.2960815429688	-227.1075286865234	1248.576293945312	-487.5400390625	-232.5128021240234	1511.0556640625	-546.9699096679688	-216.7262420654297	1428.589111328125	-711.7628784179688	-163.4503479003906	1371.262084960938	-466.9813537597656	-343.5632629394531	1471.793579101562	-537.1091918945312	-390.7249145507812	1474.74609375	-630.4256591796875	-471.9749145507812	1357.325439453125	-616.1013793945312	-500.8635864257812	1149.8369140625	-653.0491943359375	-466.1515808105469	1124.229125976562	-577.3389892578125	-416.35107421875	943.9256591796875	-776.7632446289062	-498.6138000488281	918.30859375	-770.3748168945312	-506.9657287597656	1048.96337890625	-696.2406616210938	-405.9810180664062	754.7162475585938	-829.3489379882812	-482.2876892089844	835.4148559570312	-805.0301513671875	-421.5561218261719	852.87744140625	-832.8521728515625	-58.57518768310547	1474.1748046875	-591.40087890625	5.878461360931396	1408.699340820312	-568.9033813476562	50.46336364746094	1128.44140625	-558.3330078125	-40.21968841552734	1119.558349609375	-531.1138305664062	16.14672088623047	916.5806884765625	-701.8098754882812	80.38876342773438	902.9403686523438	-649.0736083984375	65.28053283691406	1061.353271484375	-586.7194213867188	15.25444030761719	723.1025390625	-724.8247680664062	30.7001781463623	797.205322265625	-744.997314453125	84.3101806640625	797.3004150390625	-694.5726928710938	-188.4004821777344	1662.893676757812	-575.3239135742188	-253.6259460449219	1724.870727539062	-783.9105224609375	-154.4008636474609	1723.974975585938	-768.9028930664062	-313.5948791503906	1674.031616210938	-639.0987548828125	-408.7120056152344	987.0963134765625	-614.50439453125	-39.68022155761719	998.0222778320312	-595.08251953125	-73.03004455566406	1043.428100585938	-692.0797119140625	-354.5350952148438	1032.599487304688	-709.4429931640625	-347.0954895019531	506.9786071777344	-686.8101196289062	-378.8650207519531	649.1116333007812	-672.360595703125	-312.3922729492188	33.88263702392578	-599.5183715820312	-337.5966186523438	278.1705322265625	-639.9741821289062	-272.5254821777344	42.41073226928711	-819.1919555664062	-224.0094146728516	36.09941864013672	-753.0286254882812	-337.5099182128906	37.49211502075195	-726.06689453125	-256.7010498046875	37.8273811340332	-542.3666381835938	-63.48617172241211	518.9705200195312	-720.246826171875	-27.78618049621582	781.6322631835938	-682.1468505859375	-78.93294525146484	32.55782318115234	-630.6505126953125	-75.43733215332031	397.22119140625	-729.010009765625	-114.3043899536133	43.62587738037109	-843.8167724609375	-159.8237762451172	40.29709625244141	-789.4324951171875	-50.31959533691406	32.94248199462891	-739.0888671875	-140.2122955322266	35.29887771606445	-571.160400390625	nan	nan	nan	
377	3.76	-147.9856872558594	1033.226806640625	-500.5517272949219	-268.0890808105469	1041.8701171875	-506.2315979003906	-226.0206909179688	1122.006103515625	-495.0547485351562	-215.3150482177734	1311.668334960938	-739.5991821289062	-225.4846496582031	1248.483642578125	-488.7974548339844	-231.2043914794922	1511.050903320312	-547.9370727539062	-216.1515960693359	1428.791381835938	-712.8805541992188	-161.8513031005859	1371.154418945312	-468.5017700195312	-342.1953430175781	1471.68701171875	-537.62109375	-389.8878173828125	1474.723876953125	-630.6146850585938	-470.9739685058594	1357.176147460938	-615.5046997070312	-499.9267578125	1149.540771484375	-651.43212890625	-464.5049438476562	1124.359741210938	-575.7933959960938	-417.0216369628906	942.1822509765625	-773.9342041015625	-499.2573547363281	916.8609008789062	-766.5193481445312	-506.6503601074219	1048.287963867188	-693.6317749023438	-407.5192260742188	752.3843994140625	-824.4629516601562	-483.3911437988281	833.5177612304688	-800.3702392578125	-422.9039306640625	850.5162963867188	-828.8861694335938	-57.48374557495117	1474.188842773438	-593.11376953125	7.109508037567139	1408.69140625	-570.8956298828125	51.72758865356445	1128.470825195312	-560.5772094726562	-38.78683853149414	1119.59326171875	-532.9237060546875	17.25505065917969	915.835693359375	-702.8165893554688	81.76175689697266	902.6595458984375	-650.2803344726562	66.5211181640625	1061.359619140625	-588.7499389648438	16.68990898132324	722.0614624023438	-724.5241088867188	31.04205894470215	795.4952392578125	-744.8556518554688	85.75765228271484	796.745361328125	-695.13232421875	-187.5435943603516	1663.076538085938	-576.2283325195312	-252.8953399658203	1725.055419921875	-784.7781982421875	-153.6435394287109	1724.166259765625	-769.7955322265625	-312.7589416503906	1674.182861328125	-639.9393920898438	-408.0083923339844	987.297119140625	-616.0810546875	-38.7329216003418	998.1315307617188	-597.2747192382812	-72.13825225830078	1043.5625	-694.234619140625	-353.9246520996094	1032.759643554688	-711.101318359375	-346.3609008789062	506.9019470214844	-687.8696899414062	-378.2723388671875	649.1390380859375	-673.6852416992188	-312.2853088378906	33.9444694519043	-599.5252685546875	-337.2715759277344	278.2589111328125	-640.5244140625	-272.5090637207031	42.4062614440918	-819.203125	-223.9483337402344	36.06710815429688	-753.0307006835938	-337.4352722167969	37.51975631713867	-726.0768432617188	-256.6266479492188	37.86620712280273	-542.3677978515625	-63.89671325683594	518.7588500976562	-719.8792724609375	-27.56570434570312	781.3211059570312	-683.7098999023438	-79.18072509765625	32.66044235229492	-630.7201538085938	-75.97798919677734	396.9425964355469	-728.6954956054688	-114.5959167480469	42.46021270751953	-844.3528442382812	-160.0439758300781	39.37963104248047	-789.7547607421875	-50.43734359741211	33.15612030029297	-739.10302734375	-140.6488647460938	35.12889862060547	-571.2979736328125	nan	nan	nan	
378	3.77	-146.9404449462891	1033.445190429688	-502.5022583007812	-267.09716796875	1041.930908203125	-508.0152282714844	-224.928955078125	1121.931884765625	-496.7648315429688	-214.7735443115234	1311.97998046875	-740.8935546875	-223.9341735839844	1248.478637695312	-490.0479736328125	-229.8818054199219	1511.123291015625	-548.9059448242188	-215.5646514892578	1429.084716796875	-713.9967651367188	-160.2361755371094	1371.132080078125	-470.0386352539062	-340.8135986328125	1471.68017578125	-538.1424560546875	-389.04296875	1474.823852539062	-630.8038330078125	-469.948486328125	1357.143798828125	-614.8729858398438	-498.9476623535156	1149.365112304688	-649.7042846679688	-462.7129821777344	1124.620727539062	-574.1526489257812	-417.7392272949219	940.5431518554688	-770.9790649414062	-499.9191589355469	915.5343627929688	-762.4730224609375	-506.3223266601562	1047.727416992188	-690.8823852539062	-409.0765075683594	750.2033081054688	-819.477783203125	-484.4869995117188	831.7473754882812	-795.5338745117188	-424.3041076660156	848.2780151367188	-824.8053588867188	-56.3854866027832	1474.279418945312	-594.8290405273438	8.344110488891602	1408.759765625	-572.8975830078125	52.96694183349609	1128.57763671875	-562.849365234375	-37.40381240844727	1119.70556640625	-534.7733764648438	18.36324310302734	915.17822265625	-703.8631591796875	83.12992095947266	902.4769897460938	-651.5330810546875	67.73597717285156	1061.453247070312	-590.8181762695312	18.11722183227539	721.0847778320312	-724.1746826171875	31.18104934692383	793.7027587890625	-744.5990600585938	87.202880859375	796.2736206054688	-695.6964721679688	-186.6358489990234	1663.31689453125	-577.09423828125	-252.1546783447266	1725.328491210938	-785.6010131835938	-152.8675994873047	1724.458129882812	-770.6527709960938	-311.8839111328125	1674.402221679688	-640.7354125976562	-407.2790832519531	987.4938354492188	-617.6546630859375	-37.82174301147461	998.4273681640625	-599.3484497070312	-71.28269958496094	1043.883422851562	-696.27099609375	-353.28857421875	1032.916259765625	-712.7573852539062	-345.5174560546875	506.8159790039062	-688.88037109375	-377.6459045410156	649.1787109375	-675.0066528320312	-312.1712341308594	34.02352142333984	-599.5344848632812	-336.92431640625	278.3758544921875	-641.0348510742188	-272.4872131347656	42.40104675292969	-819.2154541015625	-223.8728790283203	36.02902221679688	-753.0316162109375	-337.3433227539062	37.55304336547852	-726.0906372070312	-256.5409851074219	37.91016006469727	-542.3714599609375	-64.22743988037109	518.6912841796875	-719.4214477539062	-27.34321212768555	781.2305297851562	-685.2478637695312	-79.38156890869141	32.77910614013672	-630.774658203125	-76.47091674804688	396.8197021484375	-728.2240600585938	-114.8518295288086	41.78422546386719	-844.6954345703125	-160.2760772705078	38.79401016235352	-789.958984375	-50.59181594848633	33.45920562744141	-739.102294921875	-141.0155944824219	34.97092056274414	-571.385986328125	nan	nan	nan	
